<svg width="1200" height="600" viewBox="0 0 1200 600" xmlns="http://www.w3.org/2000/svg">
  <defs>
    <linearGradient id="grad1" x1="0%" y1="0%" x2="100%" y2="100%">
      <stop offset="0%" style="stop-color:#0b2b44;stop-opacity:1" />
      <stop offset="100%" style="stop-color:#0052cc;stop-opacity:1" />
    </linearGradient>
    <linearGradient id="grad2" x1="0%" y1="0%" x2="100%" y2="0%">
      <stop offset="0%" style="stop-color:#4d94ff;stop-opacity:0.1" />
      <stop offset="100%" style="stop-color:#00cc99;stop-opacity:0.1" />
    </linearGradient>
    <pattern id="dots" x="0" y="0" width="40" height="40" patternUnits="userSpaceOnUse">
      <circle cx="20" cy="20" r="2" fill="#ffffff" opacity="0.1"/>
    </pattern>
  </defs>
  
  <!-- Background gradient -->
  <rect width="1200" height="600" fill="url(#grad1)"/>
  
  <!-- Geometric shapes -->
  <circle cx="100" cy="100" r="80" fill="url(#grad2)" opacity="0.3"/>
  <circle cx="1100" cy="500" r="120" fill="url(#grad2)" opacity="0.2"/>
  <circle cx="900" cy="150" r="60" fill="url(#grad2)" opacity="0.4"/>
  
  <!-- Abstract shapes -->
  <path d="M 200 300 Q 300 200 400 300 T 600 300" stroke="#ffffff" stroke-width="2" fill="none" opacity="0.1"/>
  <path d="M 600 400 Q 700 300 800 400 T 1000 400" stroke="#ffffff" stroke-width="2" fill="none" opacity="0.1"/>
  
  <!-- Dot pattern overlay -->
  <rect width="1200" height="600" fill="url(#dots)"/>
  
  <!-- Floating elements -->
  <g opacity="0.15">
    <rect x="50" y="400" width="8" height="8" fill="#00cc99" rx="4"/>
    <rect x="1150" y="100" width="12" height="12" fill="#4d94ff" rx="6"/>
    <rect x="1000" y="450" width="6" height="6" fill="#ffffff" rx="3"/>
    <rect x="150" y="200" width="10" height="10" fill="#00cc99" rx="5"/>
  </g>
</svg> 